<?xml version="1.0" encoding="UTF-8" standalone="no"?>
<!-- Created with Inkscape (http://www.inkscape.org/) -->

<svg
   xmlns:dc="http://purl.org/dc/elements/1.1/"
   xmlns:cc="http://creativecommons.org/ns#"
   xmlns:rdf="http://www.w3.org/1999/02/22-rdf-syntax-ns#"
   xmlns:svg="http://www.w3.org/2000/svg"
   xmlns="http://www.w3.org/2000/svg"
   version="1.1"
   width="830.29462"
   height="167.15787"
   id="svg2">
  <defs
     id="defs4" />
  <metadata
     id="metadata7">
    <rdf:RDF>
      <cc:Work
         rdf:about="">
        <dc:format>image/svg+xml</dc:format>
        <dc:type
           rdf:resource="http://purl.org/dc/dcmitype/StillImage" />
        <dc:title></dc:title>
      </cc:Work>
    </rdf:RDF>
  </metadata>
  <g
     transform="translate(-56.285714,-354.35714)"
     id="layer1">
    <path
       d="m 197.14285,375.21933 a 51.42857,51.42857 0 1 1 -102.857141,0 51.42857,51.42857 0 1 1 102.857141,0 z"
       transform="translate(-25.714286,54.285714)"
       id="path2985"
       style="fill:#666666;stroke:#ffffff;stroke-width:4.5999999;stroke-miterlimit:4;stroke-opacity:1;stroke-dasharray:none" />
    <path
       d="m 245.38124,472.34144 56.38039,-20.67281"
       id="path3783"
       style="fill:none;stroke:#ffffff;stroke-width:7;stroke-linecap:butt;stroke-linejoin:miter;stroke-miterlimit:4;stroke-opacity:1;stroke-dasharray:none" />
    <path
       d="m 337.63341,448.92628 61.16176,29.01464"
       id="path3785"
       style="fill:none;stroke:#ffffff;stroke-width:7;stroke-linecap:butt;stroke-linejoin:miter;stroke-miterlimit:4;stroke-opacity:1;stroke-dasharray:none" />
    <path
       d="m 197.14285,375.21933 a 51.42857,51.42857 0 1 1 -102.857141,0 51.42857,51.42857 0 1 1 102.857141,0 z"
       transform="matrix(0.41504917,0,0,0.41504917,259.52141,288.05629)"
       id="path3767"
       style="fill:#666666;stroke:#ffffff;stroke-width:4.5999999;stroke-miterlimit:4;stroke-opacity:1;stroke-dasharray:none" />
    <path
       d="m 430.1821,481.34259 75.35009,-52.96083"
       id="path3787"
       style="fill:none;stroke:#ffffff;stroke-width:7;stroke-linecap:butt;stroke-linejoin:miter;stroke-miterlimit:4;stroke-opacity:1;stroke-dasharray:none" />
    <path
       d="m 197.14285,375.21933 a 51.42857,51.42857 0 1 1 -102.857141,0 51.42857,51.42857 0 1 1 102.857141,0 z"
       transform="matrix(0.41504917,0,0,0.41504917,350.94998,328.05629)"
       id="path3769"
       style="fill:#666666;stroke:#ffffff;stroke-width:4.5999999;stroke-miterlimit:4;stroke-opacity:1;stroke-dasharray:none" />
    <path
       d="m 534.62919,430.74918 73.59877,55.36883"
       id="path3789"
       style="fill:none;stroke:#ffffff;stroke-width:7;stroke-linecap:butt;stroke-linejoin:miter;stroke-miterlimit:4;stroke-opacity:1;stroke-dasharray:none" />
    <path
       d="m 197.14285,375.21933 a 51.42857,51.42857 0 1 1 -102.857141,0 51.42857,51.42857 0 1 1 102.857141,0 z"
       transform="matrix(0.41504917,0,0,0.41504917,456.66426,265.19915)"
       id="path3771"
       style="fill:#666666;stroke:#ffffff;stroke-width:4.5999999;stroke-miterlimit:4;stroke-opacity:1;stroke-dasharray:none" />
    <path
       d="m 623.61832,493.2762 71.33479,-58.25663"
       id="path3791"
       style="fill:none;stroke:#ffffff;stroke-width:7;stroke-linecap:butt;stroke-linejoin:miter;stroke-miterlimit:4;stroke-opacity:1;stroke-dasharray:none" />
    <path
       d="m 197.14285,375.21933 a 51.42857,51.42857 0 1 1 -102.857141,0 51.42857,51.42857 0 1 1 102.857141,0 z"
       transform="matrix(0.41504917,0,0,0.41504917,554.09284,333.48486)"
       id="path3773"
       style="fill:#666666;stroke:#ffffff;stroke-width:4.5999999;stroke-miterlimit:4;stroke-opacity:1;stroke-dasharray:none" />
    <path
       d="m 706.09588,434.6925 92.09397,-1.08923"
       id="path3793"
       style="fill:none;stroke:#ffffff;stroke-width:7;stroke-linecap:butt;stroke-linejoin:miter;stroke-miterlimit:4;stroke-opacity:1;stroke-dasharray:none" />
    <path
       d="m 197.14285,375.21933 a 51.42857,51.42857 0 1 1 -102.857141,0 51.42857,51.42857 0 1 1 102.857141,0 z"
       transform="matrix(0.41504917,0,0,0.41504917,633.80713,279.48486)"
       id="path3775"
       style="fill:#666666;stroke:#ffffff;stroke-width:4.5999999;stroke-miterlimit:4;stroke-opacity:1;stroke-dasharray:none" />
    <path
       d="m 197.14285,375.21933 a 51.42857,51.42857 0 1 1 -102.857141,0 51.42857,51.42857 0 1 1 102.857141,0 z"
       transform="translate(677.14286,42.857143)"
       id="path3777"
       style="fill:#666666;stroke:#ffffff;stroke-width:4.5999999;stroke-miterlimit:4;stroke-opacity:1;stroke-dasharray:none" />
    <path
       d="m 168.57143,452.36218 38.57143,17.14286"
       id="path3779"
       style="fill:none;stroke:#ffffff;stroke-width:7.69999981;stroke-linecap:butt;stroke-linejoin:miter;stroke-miterlimit:4;stroke-opacity:1;stroke-dasharray:none" />
    <path
       d="m 168.57143,452.36218 38.57143,17.14286"
       id="path3781"
       style="fill:none;stroke:#ffffff;stroke-width:7;stroke-linecap:butt;stroke-linejoin:miter;stroke-miterlimit:4;stroke-opacity:1;stroke-dasharray:none" />
    <path
       d="m 197.14285,375.21933 a 51.42857,51.42857 0 1 1 -102.857141,0 51.42857,51.42857 0 1 1 102.857141,0 z"
       transform="matrix(0.41504917,0,0,0.41504917,165.80712,319.48486)"
       id="path3765"
       style="fill:#666666;stroke:#ffffff;stroke-width:4.5999999;stroke-miterlimit:4;stroke-opacity:1;stroke-dasharray:none" />
  </g>
</svg>
